<?xml version="1.0" encoding="iso-8859-1"?>
<!-- Generator: Adobe Illustrator 19.0.0, SVG Export Plug-In . SVG Version: 6.00 Build 0)  -->
<svg xmlns="http://www.w3.org/2000/svg" xmlns:xlink="http://www.w3.org/1999/xlink" version="1.1" id="Capa_1" x="0px" y="0px" viewBox="0 0 469.333 469.333" style="enable-background:new 0 0 469.333 469.333;" xml:space="preserve" width="512px" height="512px">
<g>
	<g>
		<g>
			<path d="M125.417,309.01l20.438,5.115L135,332.188c-2.521,4.198-1.854,9.573,1.604,13.031l30.188,30.167     c3.479,3.469,8.854,4.104,13.042,1.604l18.042-10.833l5.104,20.438c1.188,4.74,5.458,8.073,10.354,8.073H256     c4.896,0,9.167-3.333,10.354-8.073l5.104-20.438L289.5,376.99c4.188,2.5,9.563,1.865,13.042-1.604l30.167-30.167     c3.458-3.458,4.125-8.833,1.604-13.031l-10.833-18.063l20.438-5.115c4.75-1.188,8.083-5.448,8.083-10.344V256     c0-4.896-3.333-9.156-8.083-10.344l-20.438-5.115l10.833-18.063c2.521-4.198,1.854-9.573-1.604-13.031l-30.167-30.167     c-3.479-3.49-8.854-4.104-13.042-1.604l-18.042,10.833l-5.104-20.438C265.167,163.333,260.896,160,256,160h-42.667     c-4.896,0-9.167,3.333-10.354,8.073l-5.104,20.438l-18.042-10.833c-4.188-2.5-9.563-1.885-13.042,1.604l-30.188,30.167     c-3.458,3.458-4.125,8.833-1.604,13.031l10.854,18.063l-20.438,5.115c-4.75,1.188-8.083,5.448-8.083,10.344v42.667     C117.333,303.562,120.667,307.823,125.417,309.01z M234.667,234.667c23.534,0,42.667,19.142,42.667,42.667     c0,23.525-19.133,42.667-42.667,42.667S192,300.858,192,277.333C192,253.809,211.133,234.667,234.667,234.667z" fill="#707989"/>
			<path d="M426.667,0h-384C19.146,0,0,19.135,0,42.667v384c0,23.531,19.146,42.667,42.667,42.667h384     c23.521,0,42.667-19.135,42.667-42.667v-384C469.333,19.135,450.188,0,426.667,0z M138.667,42.667     c5.891,0,10.667,4.775,10.667,10.667c0,5.891-4.776,10.667-10.667,10.667S128,59.224,128,53.333     C128,47.441,132.776,42.667,138.667,42.667z M96,42.667c5.891,0,10.667,4.775,10.667,10.667C106.667,59.224,101.891,64,96,64     s-10.667-4.776-10.667-10.667C85.333,47.441,90.109,42.667,96,42.667z M53.333,42.667C59.224,42.667,64,47.441,64,53.333     C64,59.224,59.224,64,53.333,64s-10.667-4.776-10.667-10.667C42.667,47.441,47.443,42.667,53.333,42.667z M426.667,426.667h-384     v-320h384V426.667z" fill="#707989"/>
		</g>
	</g>
</g>
<g>
</g>
<g>
</g>
<g>
</g>
<g>
</g>
<g>
</g>
<g>
</g>
<g>
</g>
<g>
</g>
<g>
</g>
<g>
</g>
<g>
</g>
<g>
</g>
<g>
</g>
<g>
</g>
<g>
</g>
</svg>
