<?xml version="1.0" encoding="iso-8859-1"?>
<!-- Generator: Adobe Illustrator 19.0.0, SVG Export Plug-In . SVG Version: 6.00 Build 0)  -->
<svg xmlns="http://www.w3.org/2000/svg" xmlns:xlink="http://www.w3.org/1999/xlink" version="1.1" id="Capa_1" x="0px" y="0px" viewBox="0 0 512 512" style="enable-background:new 0 0 512 512;" xml:space="preserve" width="512px" height="512px">
<g>
	<g>
		<path d="M437,362h-45v-45c0-8.284-6.716-15-15-15s-15,6.716-15,15v60c0,8.284,6.716,15,15,15h60c8.284,0,15-6.716,15-15    S445.284,362,437,362z" fill="#FFFFFF"/>
	</g>
</g>
<g>
	<g>
		<path d="M135,272H75c-8.284,0-15,6.716-15,15s6.716,15,15,15h60c8.284,0,15-6.716,15-15S143.284,272,135,272z" fill="#FFFFFF"/>
	</g>
</g>
<g>
	<g>
		<path d="M135,362H75c-8.284,0-15,6.716-15,15s6.716,15,15,15h60c8.284,0,15-6.716,15-15S143.284,362,135,362z" fill="#FFFFFF"/>
	</g>
</g>
<g>
	<g>
		<path d="M467,60h-15V45c0-24.813-20.187-45-45-45s-45,20.187-45,45v15h-60V45c0-24.813-20.187-45-45-45s-45,20.187-45,45v15h-62    V45c0-24.813-20.187-45-45-45S60,20.187,60,45v15H45C20.187,60,0,80.187,0,105v332c0,24.813,20.187,45,45,45h247.251    c23.186,18.75,52.676,30,84.749,30c74.439,0,135-60.561,135-135V105C512,80.187,491.813,60,467,60z M392,45    c0-8.271,6.729-15,15-15s15,6.729,15,15v60c0,8.271-6.729,15-15,15s-15-6.729-15-15V45z M242,75.01c0-0.003,0-0.006,0-0.01    s0-0.006,0-0.01V45c0-8.271,6.729-15,15-15s15,6.729,15,15v60c0,8.271-6.729,15-15,15s-15-6.729-15-15V75.01z M90,45    c0-8.271,6.729-15,15-15s15,6.729,15,15v60c0,8.271-6.729,15-15,15s-15-6.729-15-15V45z M377,482c-57.897,0-105-47.103-105-105    c0-57.897,47.103-105,105-105c57.897,0,105,47.103,105,105C482,434.897,434.897,482,377,482z M482,292.251    C457.231,261.624,419.367,242,377,242c-32.453,0-62.265,11.513-85.574,30.666C290.027,272.234,288.541,272,287,272h-60    c-8.284,0-15,6.716-15,15s6.716,14.9,15,14.9h37.806c-11.764,17.541-19.522,38.08-21.968,60.1H227c-8.284,0-15,6.716-15,15    s6.716,15,15,15h15.838c2.446,22.02,10.204,42.459,21.968,60H45c-8.271,0-15-6.729-15-15V212h452V292.251z M482,182H30v-77    c0-8.271,6.729-15,15-15h15v15c0,24.813,20.187,45,45,45s45-20.187,45-45V90h62v15c0,24.813,20.187,45,45,45s45-20.187,45-45V90    h60v15c0,24.813,20.187,45,45,45s45-20.187,45-45V90h15c8.271,0,15,6.729,15,15V182z" fill="#FFFFFF"/>
	</g>
</g>
<g>
</g>
<g>
</g>
<g>
</g>
<g>
</g>
<g>
</g>
<g>
</g>
<g>
</g>
<g>
</g>
<g>
</g>
<g>
</g>
<g>
</g>
<g>
</g>
<g>
</g>
<g>
</g>
<g>
</g>
</svg>
