<?xml version="1.0" encoding="iso-8859-1"?>
<!-- Generator: Adobe Illustrator 18.1.1, SVG Export Plug-In . SVG Version: 6.00 Build 0)  -->
<svg xmlns="http://www.w3.org/2000/svg" xmlns:xlink="http://www.w3.org/1999/xlink" version="1.1" id="Capa_1" x="0px" y="0px" viewBox="0 0 525.938 525.938" style="enable-background:new 0 0 525.938 525.938;" xml:space="preserve" width="512px" height="512px">
<g>
	<g>
		<path d="M508.605,17.332C497.051,5.777,482.908,0,466.172,0H59.766C43.032,0,28.887,5.777,17.332,17.332    C5.777,28.887,0,43.031,0,59.766v406.406c0,16.731,5.777,30.879,17.332,42.434c11.555,11.558,25.699,17.332,42.434,17.332h406.406    c16.734,0,30.879-5.774,42.434-17.332c11.559-11.555,17.332-25.699,17.332-42.434V59.766    C525.938,43.032,520.162,28.887,508.605,17.332z M340.066,256.694c-30.678,41.238-55.777,86.958-75.305,137.162l-24.503,62.156    l-43.031-52.594c-8.766-10.758-18.428-21.316-28.986-31.676c-10.558-10.36-19.623-18.929-27.193-25.699    c-7.57-6.773-18.229-16.037-31.975-27.791s-24.404-21.217-31.975-28.392l38.848-66.338c5.18,4.384,15.041,13.05,29.584,25.998    c14.543,12.949,27.592,24.604,39.146,34.963s22.113,19.925,31.676,28.688c21.516-41.836,48.908-81.58,82.177-119.232    c33.271-37.652,73.215-78.194,119.83-121.623l35.859,59.766C408.797,173.919,370.746,215.456,340.066,256.694z" fill="#d73662"/>
	</g>
</g>
<g>
</g>
<g>
</g>
<g>
</g>
<g>
</g>
<g>
</g>
<g>
</g>
<g>
</g>
<g>
</g>
<g>
</g>
<g>
</g>
<g>
</g>
<g>
</g>
<g>
</g>
<g>
</g>
<g>
</g>
</svg>
