<?xml version="1.0" encoding="iso-8859-1"?>
<!-- Generator: Adobe Illustrator 19.0.0, SVG Export Plug-In . SVG Version: 6.00 Build 0)  -->
<svg xmlns="http://www.w3.org/2000/svg" xmlns:xlink="http://www.w3.org/1999/xlink" version="1.1" id="Capa_1" x="0px" y="0px" viewBox="0 0 512 512" style="enable-background:new 0 0 512 512;" xml:space="preserve" width="512px" height="512px">
<g>
	<g>
		<path d="M57.329,79.278c-4.142,0-7.5,3.358-7.5,7.5v6.708c0,4.142,3.358,7.5,7.5,7.5c4.142,0,7.5-3.358,7.5-7.5v-6.708    C64.828,82.636,61.471,79.278,57.329,79.278z" fill="#eef2f6"/>
	</g>
</g>
<g>
	<g>
		<path d="M131.464,79.278c-4.142,0-7.5,3.358-7.5,7.5v6.708c0,4.142,3.358,7.5,7.5,7.5c4.142,0,7.5-3.358,7.5-7.5v-6.708    C138.964,82.636,135.607,79.278,131.464,79.278z" fill="#eef2f6"/>
	</g>
</g>
<g>
	<g>
		<path d="M110.573,87.824c-3.118-2.727-7.857-2.408-10.583,0.71c-1.339,1.531-3.378,2.409-5.594,2.409s-4.255-0.878-5.594-2.41    c-2.726-3.118-7.464-3.437-10.583-0.711c-3.119,2.726-3.437,7.464-0.711,10.583c4.188,4.792,10.343,7.539,16.888,7.539    s12.7-2.747,16.887-7.537C114.01,95.289,113.691,90.551,110.573,87.824z" fill="#eef2f6"/>
	</g>
</g>
<g>
	<g>
		<path d="M94.396,0C78.388,0,62.584,4.175,48.693,12.073c-3.601,2.047-4.86,6.626-2.813,10.227s6.626,4.86,10.227,2.813    C67.743,18.497,80.984,15,94.396,15c42.795,0,77.611,34.816,77.611,77.611c0,42.795-34.816,77.611-77.611,77.611    c-42.795,0-77.611-34.816-77.611-77.611c0-18.237,6.464-35.965,18.201-49.917c2.666-3.17,2.258-7.901-0.912-10.567    c-3.17-2.667-7.901-2.258-10.567,0.911C9.5,49.689,1.787,70.847,1.787,92.611c0,51.066,41.545,92.611,92.611,92.611    s92.611-41.545,92.611-92.611C187.008,41.545,145.463,0,94.396,0z" fill="#eef2f6"/>
	</g>
</g>
<g>
	<g>
		<path d="M380.536,399.506c-4.142,0-7.5,3.358-7.5,7.5v6.708c0,4.142,3.358,7.5,7.5,7.5c4.142,0,7.5-3.358,7.5-7.5v-6.708    C388.036,402.864,384.679,399.506,380.536,399.506z" fill="#eef2f6"/>
	</g>
</g>
<g>
	<g>
		<path d="M454.672,399.506c-4.142,0-7.5,3.358-7.5,7.5v6.708c0,4.142,3.358,7.5,7.5,7.5c4.142,0,7.5-3.358,7.5-7.5v-6.708    C462.172,402.864,458.815,399.506,454.672,399.506z" fill="#eef2f6"/>
	</g>
</g>
<g>
	<g>
		<path d="M433.781,408.052c-3.118-2.726-7.857-2.409-10.583,0.71c-1.338,1.531-3.377,2.409-5.594,2.409s-4.256-0.878-5.595-2.409    c-2.725-3.119-7.463-3.437-10.583-0.71c-3.119,2.726-3.437,7.464-0.71,10.583c4.187,4.79,10.343,7.537,16.888,7.537    c6.545,0,12.7-2.747,16.887-7.537C437.219,415.516,436.899,410.779,433.781,408.052z" fill="#eef2f6"/>
	</g>
</g>
<g>
	<g>
		<path d="M417.604,320.228c-51.066,0-92.611,41.545-92.611,92.611c0,21.094,6.931,40.979,20.042,57.505    c2.575,3.245,7.292,3.789,10.537,1.214s3.788-7.292,1.214-10.537c-10.986-13.847-16.793-30.508-16.793-48.182    c0-42.795,34.816-77.611,77.611-77.611c42.794,0,77.61,34.816,77.61,77.611c0,42.794-34.816,77.61-77.61,77.61    c-14.244,0-28.168-3.891-40.27-11.251c-3.539-2.152-8.153-1.028-10.305,2.51c-2.152,3.538-1.029,8.153,2.51,10.305    c14.45,8.79,31.071,13.436,48.064,13.436c51.065,0,92.61-41.545,92.61-92.61C510.214,361.773,468.671,320.228,417.604,320.228z" fill="#eef2f6"/>
	</g>
</g>
<g>
	<g>
		<path d="M57.329,406.056c-4.142,0-7.5,3.358-7.5,7.5v6.708c0,4.142,3.358,7.5,7.5,7.5c4.142,0,7.5-3.358,7.5-7.5v-6.708    C64.828,409.414,61.472,406.056,57.329,406.056z" fill="#eef2f6"/>
	</g>
</g>
<g>
	<g>
		<path d="M131.464,406.056c-4.142,0-7.5,3.358-7.5,7.5v6.708c0,4.142,3.358,7.5,7.5,7.5c4.142,0,7.5-3.358,7.5-7.5v-6.708    C138.964,409.414,135.607,406.056,131.464,406.056z" fill="#eef2f6"/>
	</g>
</g>
<g>
	<g>
		<path d="M110.573,414.603c-3.118-2.727-7.857-2.408-10.583,0.71c-1.339,1.531-3.378,2.409-5.594,2.409s-4.255-0.878-5.594-2.41    c-2.726-3.118-7.464-3.437-10.583-0.711s-3.437,7.464-0.711,10.583c4.187,4.79,10.343,7.538,16.888,7.538s12.7-2.747,16.887-7.537    C114.011,422.067,113.693,417.329,110.573,414.603z" fill="#eef2f6"/>
	</g>
</g>
<g>
	<g>
		<path d="M159.023,326.778H29.771c-15.431,0-27.985,12.554-27.985,27.985v129.251C1.787,499.446,14.341,512,29.771,512h129.251    c15.431,0,27.985-12.554,27.985-27.985V354.764C187.008,339.333,174.454,326.778,159.023,326.778z M172.008,484.015    c0,7.16-5.825,12.985-12.985,12.985H29.771c-7.16,0-12.985-5.825-12.985-12.985V354.764c0-7.16,5.825-12.985,12.985-12.985    h129.251c7.16,0,12.985,5.825,12.985,12.985V484.015z" fill="#eef2f6"/>
	</g>
</g>
<g>
	<g>
		<path d="M321.799,89.886c-0.382-0.993-0.988-1.901-1.75-2.644l-30.42-30.104c-2.943-2.913-7.692-2.89-10.606,0.056    c-2.914,2.944-2.889,7.693,0.056,10.606l17.492,17.31h-82.333c-4.142,0-7.5,3.358-7.5,7.5c0,4.142,3.358,7.5,7.5,7.5h82.333    c0,0-17.488,17.306-17.492,17.31c-2.879,2.849-2.94,7.692-0.056,10.606c2.849,2.879,7.692,2.94,10.606,0.056    c0,0,30.457-30.14,30.491-30.174C322.218,95.842,322.851,92.618,321.799,89.886z" fill="#eef2f6"/>
	</g>
</g>
<g>
	<g>
		<path d="M454.672,125.301c-4.142,0-7.5,3.358-7.5,7.5v6.708c0,4.142,3.358,7.5,7.5,7.5c4.142,0,7.5-3.358,7.5-7.5v-6.708    C462.172,128.659,458.815,125.301,454.672,125.301z" fill="#eef2f6"/>
	</g>
</g>
<g>
	<g>
		<path d="M380.536,125.301c-4.142,0-7.5,3.358-7.5,7.5v6.708c0,4.142,3.358,7.5,7.5,7.5c4.142,0,7.5-3.358,7.5-7.5v-6.708    C388.036,128.659,384.679,125.301,380.536,125.301z" fill="#eef2f6"/>
	</g>
</g>
<g>
	<g>
		<path d="M433.781,133.848c-3.118-2.727-7.857-2.409-10.583,0.71c-1.339,1.531-3.378,2.41-5.594,2.41    c-2.217,0-4.256-0.878-5.594-2.409c-2.726-3.119-7.464-3.437-10.583-0.711c-3.119,2.727-3.437,7.464-0.711,10.583    c4.188,4.79,10.342,7.537,16.888,7.537c6.545,0,12.7-2.748,16.887-7.538C437.219,141.312,436.901,136.574,433.781,133.848z" fill="#eef2f6"/>
	</g>
</g>
<g>
	<g>
		<path d="M502.419,160.36l-69.45-138.9c-2.929-5.857-8.817-9.496-15.365-9.496c-6.549,0-12.437,3.639-15.365,9.496l-69.45,138.9    c-5.62,11.239,2.845,24.861,15.365,24.861h138.9c5.997,0.001,11.46-3.045,14.613-8.147    C504.82,171.972,505.102,165.724,502.419,160.36z M487.054,170.221h-138.9c-1.056,0.001-1.614-0.647-1.853-1.033    s-0.568-1.174-0.096-2.12c0,0,69.402-138.803,69.45-138.9c0.786-1.573,3.098-1.6,3.898,0c0,0,69.408,138.816,69.45,138.9    C489.705,168.471,488.653,170.221,487.054,170.221z" fill="#eef2f6"/>
	</g>
</g>
<g>
	<g>
		<path d="M129.868,232.947c0,0-29.892-30.206-30.171-30.488c-3.104-3.135-7.627-3.004-10.668,0.068l-30.104,30.42    c-2.914,2.944-2.889,7.693,0.055,10.606c2.945,2.914,7.693,2.889,10.606-0.056l17.31-17.491v82.333c0,4.143,3.358,7.501,7.5,7.501    c4.142,0,7.5-3.358,7.5-7.5v-82.333l17.309,17.491c2.914,2.944,7.662,2.97,10.607,0.056    C132.717,240.68,132.737,235.846,129.868,232.947z" fill="#eef2f6"/>
	</g>
</g>
<g>
	<g>
		<path d="M453.02,268.402c-2.943-2.913-7.692-2.89-10.606,0.056l-17.309,17.491v-82.333c0-4.14-3.358-7.498-7.5-7.498    c-4.142,0-7.5,3.358-7.5,7.5v82.333l-17.31-17.492c-2.914-2.945-7.663-2.969-10.606-0.056c-2.944,2.914-2.969,7.662-0.056,10.606    c0,0,30.085,30.401,30.102,30.418c1.416,1.431,3.35,2.264,5.368,2.264c1.995,0,3.924-0.814,5.333-2.225    c0,0,30.119-30.436,30.14-30.458C455.942,276.111,455.91,271.261,453.02,268.402z" fill="#eef2f6"/>
	</g>
</g>
<g>
</g>
<g>
</g>
<g>
</g>
<g>
</g>
<g>
</g>
<g>
</g>
<g>
</g>
<g>
</g>
<g>
</g>
<g>
</g>
<g>
</g>
<g>
</g>
<g>
</g>
<g>
</g>
<g>
</g>
</svg>
